<svg viewBox="0 0 280 90" xmlns="http://www.w3.org/2000/svg" fill="none">
  <!-- N — arch-based left stroke + diagonals -->
  <path d="M8 78 L8 12 L20 12 L20 38 Q20 20 32 12 L44 12 L44 78 L32 78 L32 50 Q32 68 20 78 Z" fill="#0080C6"/>
  <rect x="8" y="12" width="12" height="66" rx="4" fill="#0080C6"/>
  <rect x="32" y="12" width="12" height="66" rx="4" fill="#0080C6"/>
  <polygon points="20,12 44,78 32,78 8,12" fill="#0080C6"/>

  <!-- O — circle ring -->
  <circle cx="140" cy="45" r="34" stroke="#0080C6" stroke-width="11" fill="none"/>

  <!-- K — vertical + two arms -->
  <rect x="196" y="12" width="12" height="66" rx="4" fill="#0080C6"/>
  <polygon points="208,45 272,12 260,12 204,42" fill="#0080C6"/>
  <polygon points="208,45 272,78 260,78 204,48" fill="#0080C6"/>
</svg>
